# xmcd CD database file
# Copyright (C) 1993-1998 Ti Kan
#
# Track frame offsets:
#	33037
#	48112
#	63997
#	101640
#	116677
#	135735
#	161855
#	185125
#	203412
#	227145
#	240937
#	259002
#	295210
#
# Disc length: 3971 seconds
#
# Revision: 1
# Processed by: cddbd v1.4b41PL1 Copyright (c) Steve Scherf et al.
# Submitted via: NotifyCDPlayer(CDDB) 1.07
#
DISCID=bc0dcb0d
DTITLE=Baby Jason And The Spankers - Rattle
DYEAR=1900
DGENRE=
TTITLE0=I'm Ready
TTITLE1=Be Straight With Me
TTITLE2=Bad Bad Boy
TTITLE3=On The Run Again
TTITLE4=Call My Job
TTITLE5=Last Time
TTITLE6=If You Only Knew
TTITLE7=Jealousy
TTITLE8=Think I'm Gonna Scream
TTITLE9=Funky Thang
TTITLE10=Nicole
TTITLE11=Ca Vrisi Vriso
TTITLE12=sdrawkcaB
EXTD=
EXTT0=
EXTT1=
EXTT2=
EXTT3=
EXTT4=
EXTT5=
EXTT6=
EXTT7=
EXTT8=
EXTT9=
EXTT10=
EXTT11=
EXTT12=
PLAYORDER=
